<mxfile host="app.diagrams.net" modified="2023-06-11T20:59:39.935Z" agent="Mozilla/5.0 (Windows NT 10.0; Win64; x64) AppleWebKit/537.36 (KHTML, like Gecko) Chrome/114.0.0.0 Safari/537.36" etag="Cmk4fvQ_k6zrqEwyblnm" version="21.3.8" type="device">
  <diagram name="Page-1" id="KgGsKjUi9GzEMI_1FsNG">
    <mxGraphModel dx="186" dy="775" grid="1" gridSize="10" guides="1" tooltips="1" connect="1" arrows="1" fold="1" page="1" pageScale="1" pageWidth="850" pageHeight="1100" math="0" shadow="0">
      <root>
        <mxCell id="0" />
        <mxCell id="1" parent="0" />
        <mxCell id="D3T9nn6vkKpE7vzR0iQW-1" value="&lt;p style=&quot;margin:0px;margin-top:4px;text-align:center;&quot;&gt;&lt;i&gt;IGenericRepository&amp;lt;T,ID&amp;gt;&lt;/i&gt;&lt;/p&gt;&lt;p style=&quot;margin:0px;margin-left:4px;&quot;&gt;&lt;br&gt;&lt;/p&gt;&lt;hr size=&quot;1&quot;&gt;&lt;p style=&quot;margin:0px;margin-left:4px;&quot;&gt;+ GetAll(): List&amp;lt;T&amp;gt;&lt;br&gt;+ NextId(): int&lt;/p&gt;&amp;nbsp;+Create(T entity):void&lt;br&gt;&amp;nbsp;+Update(T entity):void&lt;br&gt;&amp;nbsp;+Remove(T entity):void&lt;br&gt;&amp;nbsp;+GetById(ID key):T" style="verticalAlign=top;align=left;overflow=fill;fontSize=12;fontFamily=Helvetica;html=1;whiteSpace=wrap;" parent="1" vertex="1">
          <mxGeometry x="3170" y="290" width="390" height="140" as="geometry" />
        </mxCell>
        <mxCell id="D3T9nn6vkKpE7vzR0iQW-2" value="&lt;p style=&quot;margin:0px;margin-top:4px;text-align:center;&quot;&gt;&lt;i&gt;IGuest2Repository&lt;/i&gt;&lt;/p&gt;&lt;p style=&quot;margin:0px;margin-left:4px;&quot;&gt;&lt;br&gt;&lt;/p&gt;&lt;p style=&quot;margin:0px;margin-left:4px;&quot;&gt;&lt;br&gt;&lt;/p&gt;+GetByUserId(int userId):Guest2&lt;p style=&quot;margin:0px;margin-left:4px;&quot;&gt;&lt;/p&gt;" style="verticalAlign=top;align=left;overflow=fill;fontSize=12;fontFamily=Helvetica;html=1;whiteSpace=wrap;" parent="1" vertex="1">
          <mxGeometry x="3310" y="528" width="390" height="70" as="geometry" />
        </mxCell>
        <mxCell id="D3T9nn6vkKpE7vzR0iQW-4" value="&lt;p style=&quot;margin:0px;margin-top:4px;text-align:center;&quot;&gt;&lt;i style=&quot;&quot;&gt;ISubject&lt;/i&gt;&lt;/p&gt;&lt;hr size=&quot;1&quot;&gt;&lt;p style=&quot;margin:0px;margin-left:4px;&quot;&gt;+Subscribe(IObserver observer):void&lt;/p&gt;&lt;p style=&quot;margin:0px;margin-left:4px;&quot;&gt;+Unsubscribe(IObserver observer):void&lt;br&gt;&lt;/p&gt;&lt;p style=&quot;margin:0px;margin-left:4px;&quot;&gt;+NotifyObservers():void&lt;br&gt;&lt;/p&gt;" style="verticalAlign=top;align=left;overflow=fill;fontSize=12;fontFamily=Helvetica;html=1;whiteSpace=wrap;" parent="1" vertex="1">
          <mxGeometry x="3570" y="344" width="230" height="84" as="geometry" />
        </mxCell>
        <mxCell id="D3T9nn6vkKpE7vzR0iQW-5" value="&lt;p style=&quot;margin:0px;margin-top:4px;text-align:center;&quot;&gt;&lt;i style=&quot;&quot;&gt;IObserver&lt;/i&gt;&lt;/p&gt;&lt;hr size=&quot;1&quot;&gt;&lt;p style=&quot;margin:0px;margin-left:4px;&quot;&gt;+Update():void&lt;/p&gt;" style="verticalAlign=top;align=left;overflow=fill;fontSize=12;fontFamily=Helvetica;html=1;whiteSpace=wrap;" parent="1" vertex="1">
          <mxGeometry x="3840" y="580" width="230" height="60" as="geometry" />
        </mxCell>
        <mxCell id="D3T9nn6vkKpE7vzR0iQW-7" value="&lt;b&gt;Guest2Repository&lt;/b&gt;" style="swimlane;fontStyle=0;childLayout=stackLayout;horizontal=1;startSize=26;fillColor=none;horizontalStack=0;resizeParent=1;resizeParentMax=0;resizeLast=0;collapsible=1;marginBottom=0;whiteSpace=wrap;html=1;labelBackgroundColor=none;" parent="1" vertex="1">
          <mxGeometry x="3410" y="714" width="390" height="294" as="geometry">
            <mxRectangle x="2350" y="580" width="280" height="30" as="alternateBounds" />
          </mxGeometry>
        </mxCell>
        <mxCell id="D3T9nn6vkKpE7vzR0iQW-8" value="" style="line;strokeWidth=1;fillColor=none;align=left;verticalAlign=middle;spacingTop=-1;spacingLeft=3;spacingRight=3;rotatable=0;labelPosition=right;points=[];portConstraint=eastwest;strokeColor=inherit;" parent="D3T9nn6vkKpE7vzR0iQW-7" vertex="1">
          <mxGeometry y="26" width="390" height="8" as="geometry" />
        </mxCell>
        <mxCell id="D3T9nn6vkKpE7vzR0iQW-9" value="+&amp;lt;&amp;lt;Implement&amp;gt;&amp;gt; NextId(): int" style="text;strokeColor=none;fillColor=none;align=left;verticalAlign=top;spacingLeft=4;spacingRight=4;overflow=hidden;rotatable=0;points=[[0,0.5],[1,0.5]];portConstraint=eastwest;whiteSpace=wrap;html=1;labelBackgroundColor=none;" parent="D3T9nn6vkKpE7vzR0iQW-7" vertex="1">
          <mxGeometry y="34" width="390" height="26" as="geometry" />
        </mxCell>
        <mxCell id="D3T9nn6vkKpE7vzR0iQW-10" value="+&amp;lt;&amp;lt;Implement&amp;gt;&amp;gt; Create(Guest2 guest): void" style="text;strokeColor=none;fillColor=none;align=left;verticalAlign=top;spacingLeft=4;spacingRight=4;overflow=hidden;rotatable=0;points=[[0,0.5],[1,0.5]];portConstraint=eastwest;whiteSpace=wrap;html=1;labelBackgroundColor=none;" parent="D3T9nn6vkKpE7vzR0iQW-7" vertex="1">
          <mxGeometry y="60" width="390" height="26" as="geometry" />
        </mxCell>
        <mxCell id="D3T9nn6vkKpE7vzR0iQW-11" value="+&amp;lt;&amp;lt;Implement&amp;gt;&amp;gt; Remove(Guest2 guest): void" style="text;strokeColor=none;fillColor=none;align=left;verticalAlign=top;spacingLeft=4;spacingRight=4;overflow=hidden;rotatable=0;points=[[0,0.5],[1,0.5]];portConstraint=eastwest;whiteSpace=wrap;html=1;labelBackgroundColor=none;" parent="D3T9nn6vkKpE7vzR0iQW-7" vertex="1">
          <mxGeometry y="86" width="390" height="26" as="geometry" />
        </mxCell>
        <mxCell id="D3T9nn6vkKpE7vzR0iQW-12" value="+&amp;lt;&amp;lt;Implement&amp;gt;&amp;gt; Update(Guest2 guest): void" style="text;strokeColor=none;fillColor=none;align=left;verticalAlign=top;spacingLeft=4;spacingRight=4;overflow=hidden;rotatable=0;points=[[0,0.5],[1,0.5]];portConstraint=eastwest;whiteSpace=wrap;html=1;labelBackgroundColor=none;" parent="D3T9nn6vkKpE7vzR0iQW-7" vertex="1">
          <mxGeometry y="112" width="390" height="26" as="geometry" />
        </mxCell>
        <mxCell id="D3T9nn6vkKpE7vzR0iQW-13" value="+&amp;lt;&amp;lt;Implement&amp;gt;&amp;gt; GetAll(): List&amp;lt;Guest2&amp;gt;" style="text;strokeColor=none;fillColor=none;align=left;verticalAlign=top;spacingLeft=4;spacingRight=4;overflow=hidden;rotatable=0;points=[[0,0.5],[1,0.5]];portConstraint=eastwest;whiteSpace=wrap;html=1;labelBackgroundColor=none;" parent="D3T9nn6vkKpE7vzR0iQW-7" vertex="1">
          <mxGeometry y="138" width="390" height="26" as="geometry" />
        </mxCell>
        <mxCell id="D3T9nn6vkKpE7vzR0iQW-14" value="+&amp;lt;&amp;lt;Implement&amp;gt;&amp;gt; GetById(int id): Guest2" style="text;strokeColor=none;fillColor=none;align=left;verticalAlign=top;spacingLeft=4;spacingRight=4;overflow=hidden;rotatable=0;points=[[0,0.5],[1,0.5]];portConstraint=eastwest;whiteSpace=wrap;html=1;labelBackgroundColor=none;" parent="D3T9nn6vkKpE7vzR0iQW-7" vertex="1">
          <mxGeometry y="164" width="390" height="26" as="geometry" />
        </mxCell>
        <mxCell id="D3T9nn6vkKpE7vzR0iQW-15" value="+&amp;lt;&amp;lt;Implement&amp;gt;&amp;gt; Subscribe(IObserver observer): void" style="text;strokeColor=none;fillColor=none;align=left;verticalAlign=top;spacingLeft=4;spacingRight=4;overflow=hidden;rotatable=0;points=[[0,0.5],[1,0.5]];portConstraint=eastwest;whiteSpace=wrap;html=1;labelBackgroundColor=none;" parent="D3T9nn6vkKpE7vzR0iQW-7" vertex="1">
          <mxGeometry y="190" width="390" height="26" as="geometry" />
        </mxCell>
        <mxCell id="D3T9nn6vkKpE7vzR0iQW-16" value="+&amp;lt;&amp;lt;Implement&amp;gt;&amp;gt; Unsubscribe(IObserver observer): void" style="text;strokeColor=none;fillColor=none;align=left;verticalAlign=top;spacingLeft=4;spacingRight=4;overflow=hidden;rotatable=0;points=[[0,0.5],[1,0.5]];portConstraint=eastwest;whiteSpace=wrap;html=1;labelBackgroundColor=none;" parent="D3T9nn6vkKpE7vzR0iQW-7" vertex="1">
          <mxGeometry y="216" width="390" height="26" as="geometry" />
        </mxCell>
        <mxCell id="D3T9nn6vkKpE7vzR0iQW-17" value="+&amp;lt;&amp;lt;Implement&amp;gt;&amp;gt; NotifyObservers(): void&lt;br&gt;" style="text;strokeColor=none;fillColor=none;align=left;verticalAlign=top;spacingLeft=4;spacingRight=4;overflow=hidden;rotatable=0;points=[[0,0.5],[1,0.5]];portConstraint=eastwest;whiteSpace=wrap;html=1;labelBackgroundColor=none;" parent="D3T9nn6vkKpE7vzR0iQW-7" vertex="1">
          <mxGeometry y="242" width="390" height="26" as="geometry" />
        </mxCell>
        <mxCell id="D3T9nn6vkKpE7vzR0iQW-18" value="+&amp;lt;&amp;lt;Implement&amp;gt;&amp;gt;GetByUserId(int userId):Guest2" style="text;strokeColor=none;fillColor=none;align=left;verticalAlign=top;spacingLeft=4;spacingRight=4;overflow=hidden;rotatable=0;points=[[0,0.5],[1,0.5]];portConstraint=eastwest;whiteSpace=wrap;html=1;labelBackgroundColor=none;" parent="D3T9nn6vkKpE7vzR0iQW-7" vertex="1">
          <mxGeometry y="268" width="390" height="26" as="geometry" />
        </mxCell>
        <mxCell id="D3T9nn6vkKpE7vzR0iQW-20" value="Guest2FileHandler" style="swimlane;fontStyle=1;align=center;verticalAlign=top;childLayout=stackLayout;horizontal=1;startSize=26;horizontalStack=0;resizeParent=1;resizeLast=0;collapsible=1;marginBottom=0;rounded=0;shadow=0;strokeWidth=1;labelBackgroundColor=none;" parent="1" vertex="1">
          <mxGeometry x="3820" y="890" width="220" height="160" as="geometry">
            <mxRectangle x="1800" y="40" width="280" height="26" as="alternateBounds" />
          </mxGeometry>
        </mxCell>
        <mxCell id="D3T9nn6vkKpE7vzR0iQW-21" value="-FilePath:string" style="text;align=left;verticalAlign=top;spacingLeft=4;spacingRight=4;overflow=hidden;rotatable=0;points=[[0,0.5],[1,0.5]];portConstraint=eastwest;labelBackgroundColor=none;" parent="D3T9nn6vkKpE7vzR0iQW-20" vertex="1">
          <mxGeometry y="26" width="220" height="26" as="geometry" />
        </mxCell>
        <mxCell id="D3T9nn6vkKpE7vzR0iQW-22" value="-_serializer:Serializer&lt;Guest2&gt;" style="text;align=left;verticalAlign=top;spacingLeft=4;spacingRight=4;overflow=hidden;rotatable=0;points=[[0,0.5],[1,0.5]];portConstraint=eastwest;labelBackgroundColor=none;" parent="D3T9nn6vkKpE7vzR0iQW-20" vertex="1">
          <mxGeometry y="52" width="220" height="26" as="geometry" />
        </mxCell>
        <mxCell id="D3T9nn6vkKpE7vzR0iQW-23" value="" style="line;html=1;strokeWidth=1;align=left;verticalAlign=middle;spacingTop=-1;spacingLeft=3;spacingRight=3;rotatable=0;labelPosition=right;points=[];portConstraint=eastwest;labelBackgroundColor=none;" parent="D3T9nn6vkKpE7vzR0iQW-20" vertex="1">
          <mxGeometry y="78" width="220" height="8" as="geometry" />
        </mxCell>
        <mxCell id="D3T9nn6vkKpE7vzR0iQW-24" value="+Load():List&amp;lt;Guest2&amp;gt;&amp;nbsp;" style="text;strokeColor=none;fillColor=none;align=left;verticalAlign=top;spacingLeft=4;spacingRight=4;overflow=hidden;rotatable=0;points=[[0,0.5],[1,0.5]];portConstraint=eastwest;whiteSpace=wrap;html=1;" parent="D3T9nn6vkKpE7vzR0iQW-20" vertex="1">
          <mxGeometry y="86" width="220" height="26" as="geometry" />
        </mxCell>
        <mxCell id="D3T9nn6vkKpE7vzR0iQW-25" value="+Save(List&amp;lt;Guest2&amp;gt; guests):void" style="text;strokeColor=none;fillColor=none;align=left;verticalAlign=top;spacingLeft=4;spacingRight=4;overflow=hidden;rotatable=0;points=[[0,0.5],[1,0.5]];portConstraint=eastwest;whiteSpace=wrap;html=1;" parent="D3T9nn6vkKpE7vzR0iQW-20" vertex="1">
          <mxGeometry y="112" width="220" height="26" as="geometry" />
        </mxCell>
        <mxCell id="D3T9nn6vkKpE7vzR0iQW-26" value="" style="endArrow=open;endFill=1;endSize=12;html=1;rounded=0;entryX=0.42;entryY=-0.001;entryDx=0;entryDy=0;exitX=1;exitY=0.308;exitDx=0;exitDy=0;exitPerimeter=0;entryPerimeter=0;" parent="1" source="D3T9nn6vkKpE7vzR0iQW-13" target="D3T9nn6vkKpE7vzR0iQW-20" edge="1">
          <mxGeometry width="160" relative="1" as="geometry">
            <mxPoint x="3730" y="844" as="sourcePoint" />
            <mxPoint x="3890" y="844" as="targetPoint" />
            <Array as="points">
              <mxPoint x="3912" y="861" />
            </Array>
          </mxGeometry>
        </mxCell>
        <mxCell id="D3T9nn6vkKpE7vzR0iQW-27" value="1..1" style="edgeLabel;html=1;align=center;verticalAlign=middle;resizable=0;points=[];" parent="D3T9nn6vkKpE7vzR0iQW-26" vertex="1" connectable="0">
          <mxGeometry x="0.824" y="-1" relative="1" as="geometry">
            <mxPoint x="19" y="-14" as="offset" />
          </mxGeometry>
        </mxCell>
        <mxCell id="D3T9nn6vkKpE7vzR0iQW-28" value="0..1" style="edgeLabel;html=1;align=center;verticalAlign=middle;resizable=0;points=[];" parent="D3T9nn6vkKpE7vzR0iQW-26" vertex="1" connectable="0">
          <mxGeometry x="-0.869" y="-2" relative="1" as="geometry">
            <mxPoint x="17" y="-16" as="offset" />
          </mxGeometry>
        </mxCell>
        <mxCell id="D3T9nn6vkKpE7vzR0iQW-29" value="" style="endArrow=open;endFill=1;endSize=12;html=1;rounded=0;entryX=0.414;entryY=1.003;entryDx=0;entryDy=0;entryPerimeter=0;exitX=0.63;exitY=0.009;exitDx=0;exitDy=0;exitPerimeter=0;" parent="1" source="D3T9nn6vkKpE7vzR0iQW-7" target="D3T9nn6vkKpE7vzR0iQW-5" edge="1">
          <mxGeometry width="160" relative="1" as="geometry">
            <mxPoint x="3940" y="774" as="sourcePoint" />
            <mxPoint x="4100" y="774" as="targetPoint" />
            <Array as="points">
              <mxPoint x="3656" y="670" />
              <mxPoint x="3935" y="670" />
            </Array>
          </mxGeometry>
        </mxCell>
        <mxCell id="D3T9nn6vkKpE7vzR0iQW-30" value="0..*" style="edgeLabel;html=1;align=center;verticalAlign=middle;resizable=0;points=[];" parent="D3T9nn6vkKpE7vzR0iQW-29" vertex="1" connectable="0">
          <mxGeometry x="0.8879" y="-1" relative="1" as="geometry">
            <mxPoint x="15" as="offset" />
          </mxGeometry>
        </mxCell>
        <mxCell id="D3T9nn6vkKpE7vzR0iQW-31" value="1..1" style="edgeLabel;html=1;align=center;verticalAlign=middle;resizable=0;points=[];" parent="D3T9nn6vkKpE7vzR0iQW-29" vertex="1" connectable="0">
          <mxGeometry x="-0.9435" y="-3" relative="1" as="geometry">
            <mxPoint x="14" y="-6" as="offset" />
          </mxGeometry>
        </mxCell>
        <mxCell id="D3T9nn6vkKpE7vzR0iQW-32" value="Guest2" style="swimlane;fontStyle=1;align=center;verticalAlign=top;childLayout=stackLayout;horizontal=1;startSize=26;horizontalStack=0;resizeParent=1;resizeParentMax=0;resizeLast=0;collapsible=1;marginBottom=0;whiteSpace=wrap;html=1;" parent="1" vertex="1" collapsed="1">
          <mxGeometry x="3110" y="1008" width="280" height="30" as="geometry">
            <mxRectangle x="2480" y="870" width="280" height="268" as="alternateBounds" />
          </mxGeometry>
        </mxCell>
        <mxCell id="D3T9nn6vkKpE7vzR0iQW-33" value="+ Id: int" style="text;strokeColor=none;fillColor=none;align=left;verticalAlign=top;spacingLeft=4;spacingRight=4;overflow=hidden;rotatable=0;points=[[0,0.5],[1,0.5]];portConstraint=eastwest;whiteSpace=wrap;html=1;" parent="D3T9nn6vkKpE7vzR0iQW-32" vertex="1">
          <mxGeometry y="26" width="280" height="26" as="geometry" />
        </mxCell>
        <mxCell id="D3T9nn6vkKpE7vzR0iQW-34" value="+ Name: string" style="text;strokeColor=none;fillColor=none;align=left;verticalAlign=top;spacingLeft=4;spacingRight=4;overflow=hidden;rotatable=0;points=[[0,0.5],[1,0.5]];portConstraint=eastwest;whiteSpace=wrap;html=1;" parent="D3T9nn6vkKpE7vzR0iQW-32" vertex="1">
          <mxGeometry y="52" width="280" height="26" as="geometry" />
        </mxCell>
        <mxCell id="D3T9nn6vkKpE7vzR0iQW-35" value="+ Surname: string" style="text;strokeColor=none;fillColor=none;align=left;verticalAlign=top;spacingLeft=4;spacingRight=4;overflow=hidden;rotatable=0;points=[[0,0.5],[1,0.5]];portConstraint=eastwest;whiteSpace=wrap;html=1;" parent="D3T9nn6vkKpE7vzR0iQW-32" vertex="1">
          <mxGeometry y="78" width="280" height="26" as="geometry" />
        </mxCell>
        <mxCell id="D3T9nn6vkKpE7vzR0iQW-36" value="+ Adress: string" style="text;strokeColor=none;fillColor=none;align=left;verticalAlign=top;spacingLeft=4;spacingRight=4;overflow=hidden;rotatable=0;points=[[0,0.5],[1,0.5]];portConstraint=eastwest;whiteSpace=wrap;html=1;" parent="D3T9nn6vkKpE7vzR0iQW-32" vertex="1">
          <mxGeometry y="104" width="280" height="26" as="geometry" />
        </mxCell>
        <mxCell id="D3T9nn6vkKpE7vzR0iQW-37" value="+ Email: string" style="text;strokeColor=none;fillColor=none;align=left;verticalAlign=top;spacingLeft=4;spacingRight=4;overflow=hidden;rotatable=0;points=[[0,0.5],[1,0.5]];portConstraint=eastwest;whiteSpace=wrap;html=1;" parent="D3T9nn6vkKpE7vzR0iQW-32" vertex="1">
          <mxGeometry y="130" width="280" height="26" as="geometry" />
        </mxCell>
        <mxCell id="D3T9nn6vkKpE7vzR0iQW-38" value="+ BirthDate: DateTime" style="text;strokeColor=none;fillColor=none;align=left;verticalAlign=top;spacingLeft=4;spacingRight=4;overflow=hidden;rotatable=0;points=[[0,0.5],[1,0.5]];portConstraint=eastwest;whiteSpace=wrap;html=1;" parent="D3T9nn6vkKpE7vzR0iQW-32" vertex="1">
          <mxGeometry y="156" width="280" height="26" as="geometry" />
        </mxCell>
        <mxCell id="D3T9nn6vkKpE7vzR0iQW-39" value="+ PhoneNumber: string" style="text;strokeColor=none;fillColor=none;align=left;verticalAlign=top;spacingLeft=4;spacingRight=4;overflow=hidden;rotatable=0;points=[[0,0.5],[1,0.5]];portConstraint=eastwest;whiteSpace=wrap;html=1;" parent="D3T9nn6vkKpE7vzR0iQW-32" vertex="1">
          <mxGeometry y="182" width="280" height="26" as="geometry" />
        </mxCell>
        <mxCell id="D3T9nn6vkKpE7vzR0iQW-40" value="" style="line;strokeWidth=1;fillColor=none;align=left;verticalAlign=middle;spacingTop=-1;spacingLeft=3;spacingRight=3;rotatable=0;labelPosition=right;points=[];portConstraint=eastwest;strokeColor=inherit;" parent="D3T9nn6vkKpE7vzR0iQW-32" vertex="1">
          <mxGeometry y="208" width="280" height="8" as="geometry" />
        </mxCell>
        <mxCell id="D3T9nn6vkKpE7vzR0iQW-41" value="+&amp;lt;&amp;lt;Implement&amp;gt;&amp;gt;&amp;nbsp;ToCSV(): string[]" style="text;strokeColor=none;fillColor=none;align=left;verticalAlign=top;spacingLeft=4;spacingRight=4;overflow=hidden;rotatable=0;points=[[0,0.5],[1,0.5]];portConstraint=eastwest;whiteSpace=wrap;html=1;" parent="D3T9nn6vkKpE7vzR0iQW-32" vertex="1">
          <mxGeometry y="216" width="280" height="26" as="geometry" />
        </mxCell>
        <mxCell id="D3T9nn6vkKpE7vzR0iQW-42" value="+&amp;lt;&amp;lt;Implement&amp;gt;&amp;gt;&amp;nbsp;FromCSV(string[] values): void" style="text;strokeColor=none;fillColor=none;align=left;verticalAlign=top;spacingLeft=4;spacingRight=4;overflow=hidden;rotatable=0;points=[[0,0.5],[1,0.5]];portConstraint=eastwest;whiteSpace=wrap;html=1;" parent="D3T9nn6vkKpE7vzR0iQW-32" vertex="1">
          <mxGeometry y="242" width="280" height="26" as="geometry" />
        </mxCell>
        <mxCell id="D3T9nn6vkKpE7vzR0iQW-43" value="" style="endArrow=open;endFill=1;endSize=12;html=1;rounded=0;entryX=0.851;entryY=-0.053;entryDx=0;entryDy=0;exitX=-0.001;exitY=0.21;exitDx=0;exitDy=0;exitPerimeter=0;entryPerimeter=0;" parent="1" source="D3T9nn6vkKpE7vzR0iQW-13" target="D3T9nn6vkKpE7vzR0iQW-32" edge="1">
          <mxGeometry width="160" relative="1" as="geometry">
            <mxPoint x="3220" y="958" as="sourcePoint" />
            <mxPoint x="3410" y="887" as="targetPoint" />
            <Array as="points">
              <mxPoint x="3350" y="861" />
            </Array>
          </mxGeometry>
        </mxCell>
        <mxCell id="D3T9nn6vkKpE7vzR0iQW-44" value="0..*" style="edgeLabel;html=1;align=center;verticalAlign=middle;resizable=0;points=[];" parent="D3T9nn6vkKpE7vzR0iQW-43" vertex="1" connectable="0">
          <mxGeometry x="0.7603" relative="1" as="geometry">
            <mxPoint x="-19" y="-11" as="offset" />
          </mxGeometry>
        </mxCell>
        <mxCell id="D3T9nn6vkKpE7vzR0iQW-45" value="1..1" style="edgeLabel;html=1;align=center;verticalAlign=middle;resizable=0;points=[];" parent="D3T9nn6vkKpE7vzR0iQW-43" vertex="1" connectable="0">
          <mxGeometry x="-0.8721" y="1" relative="1" as="geometry">
            <mxPoint x="-16" y="-19" as="offset" />
          </mxGeometry>
        </mxCell>
        <mxCell id="D3T9nn6vkKpE7vzR0iQW-46" value="Guest2Service" style="swimlane;fontStyle=1;align=center;verticalAlign=top;childLayout=stackLayout;horizontal=1;startSize=26;horizontalStack=0;resizeParent=1;resizeParentMax=0;resizeLast=0;collapsible=1;marginBottom=0;whiteSpace=wrap;html=1;" parent="1" vertex="1">
          <mxGeometry x="2975" y="641.5" width="280" height="294" as="geometry" />
        </mxCell>
        <mxCell id="D3T9nn6vkKpE7vzR0iQW-48" value="" style="line;strokeWidth=1;fillColor=none;align=left;verticalAlign=middle;spacingTop=-1;spacingLeft=3;spacingRight=3;rotatable=0;labelPosition=right;points=[];portConstraint=eastwest;strokeColor=inherit;" parent="D3T9nn6vkKpE7vzR0iQW-46" vertex="1">
          <mxGeometry y="26" width="280" height="8" as="geometry" />
        </mxCell>
        <mxCell id="D3T9nn6vkKpE7vzR0iQW-49" value="+&amp;nbsp;GetGuestByUserId(int userId) : Guest2" style="text;strokeColor=none;fillColor=none;align=left;verticalAlign=top;spacingLeft=4;spacingRight=4;overflow=hidden;rotatable=0;points=[[0,0.5],[1,0.5]];portConstraint=eastwest;whiteSpace=wrap;html=1;" parent="D3T9nn6vkKpE7vzR0iQW-46" vertex="1">
          <mxGeometry y="34" width="280" height="26" as="geometry" />
        </mxCell>
        <mxCell id="D3T9nn6vkKpE7vzR0iQW-51" value="- InitalizeUser() : void" style="text;strokeColor=none;fillColor=none;align=left;verticalAlign=top;spacingLeft=4;spacingRight=4;overflow=hidden;rotatable=0;points=[[0,0.5],[1,0.5]];portConstraint=eastwest;whiteSpace=wrap;html=1;" parent="D3T9nn6vkKpE7vzR0iQW-46" vertex="1">
          <mxGeometry y="60" width="280" height="26" as="geometry" />
        </mxCell>
        <mxCell id="D3T9nn6vkKpE7vzR0iQW-52" value="+&amp;nbsp;GetAllGuests() : List&amp;lt;Guest2&amp;gt;" style="text;strokeColor=none;fillColor=none;align=left;verticalAlign=top;spacingLeft=4;spacingRight=4;overflow=hidden;rotatable=0;points=[[0,0.5],[1,0.5]];portConstraint=eastwest;whiteSpace=wrap;html=1;" parent="D3T9nn6vkKpE7vzR0iQW-46" vertex="1">
          <mxGeometry y="86" width="280" height="26" as="geometry" />
        </mxCell>
        <mxCell id="D3T9nn6vkKpE7vzR0iQW-53" value="+ Create(Guest2 guest): void" style="text;strokeColor=none;fillColor=none;align=left;verticalAlign=top;spacingLeft=4;spacingRight=4;overflow=hidden;rotatable=0;points=[[0,0.5],[1,0.5]];portConstraint=eastwest;whiteSpace=wrap;html=1;" parent="D3T9nn6vkKpE7vzR0iQW-46" vertex="1">
          <mxGeometry y="112" width="280" height="26" as="geometry" />
        </mxCell>
        <mxCell id="D3T9nn6vkKpE7vzR0iQW-54" value="+ Delete(Guest2 guest): void" style="text;strokeColor=none;fillColor=none;align=left;verticalAlign=top;spacingLeft=4;spacingRight=4;overflow=hidden;rotatable=0;points=[[0,0.5],[1,0.5]];portConstraint=eastwest;whiteSpace=wrap;html=1;" parent="D3T9nn6vkKpE7vzR0iQW-46" vertex="1">
          <mxGeometry y="138" width="280" height="26" as="geometry" />
        </mxCell>
        <mxCell id="D3T9nn6vkKpE7vzR0iQW-55" value="+ Update(Guest2 guest): void" style="text;strokeColor=none;fillColor=none;align=left;verticalAlign=top;spacingLeft=4;spacingRight=4;overflow=hidden;rotatable=0;points=[[0,0.5],[1,0.5]];portConstraint=eastwest;whiteSpace=wrap;html=1;" parent="D3T9nn6vkKpE7vzR0iQW-46" vertex="1">
          <mxGeometry y="164" width="280" height="26" as="geometry" />
        </mxCell>
        <mxCell id="D3T9nn6vkKpE7vzR0iQW-56" value="+ Subscribe(IObserver observer): void" style="text;strokeColor=none;fillColor=none;align=left;verticalAlign=top;spacingLeft=4;spacingRight=4;overflow=hidden;rotatable=0;points=[[0,0.5],[1,0.5]];portConstraint=eastwest;whiteSpace=wrap;html=1;" parent="D3T9nn6vkKpE7vzR0iQW-46" vertex="1">
          <mxGeometry y="190" width="280" height="26" as="geometry" />
        </mxCell>
        <mxCell id="D3T9nn6vkKpE7vzR0iQW-57" value="+&amp;nbsp;GetGuestById(int id) : Guest2" style="text;strokeColor=none;fillColor=none;align=left;verticalAlign=top;spacingLeft=4;spacingRight=4;overflow=hidden;rotatable=0;points=[[0,0.5],[1,0.5]];portConstraint=eastwest;whiteSpace=wrap;html=1;" parent="D3T9nn6vkKpE7vzR0iQW-46" vertex="1">
          <mxGeometry y="216" width="280" height="26" as="geometry" />
        </mxCell>
        <mxCell id="D3T9nn6vkKpE7vzR0iQW-58" value="+&amp;nbsp;&amp;nbsp;GetAgeOnTour(Guest2 guest,Tour tour) : int" style="text;strokeColor=none;fillColor=none;align=left;verticalAlign=top;spacingLeft=4;spacingRight=4;overflow=hidden;rotatable=0;points=[[0,0.5],[1,0.5]];portConstraint=eastwest;whiteSpace=wrap;html=1;" parent="D3T9nn6vkKpE7vzR0iQW-46" vertex="1">
          <mxGeometry y="242" width="280" height="26" as="geometry" />
        </mxCell>
        <mxCell id="D3T9nn6vkKpE7vzR0iQW-59" value="+&amp;nbsp;&amp;nbsp;GiveVoucher(int id) : void" style="text;strokeColor=none;fillColor=none;align=left;verticalAlign=top;spacingLeft=4;spacingRight=4;overflow=hidden;rotatable=0;points=[[0,0.5],[1,0.5]];portConstraint=eastwest;whiteSpace=wrap;html=1;" parent="D3T9nn6vkKpE7vzR0iQW-46" vertex="1">
          <mxGeometry y="268" width="280" height="26" as="geometry" />
        </mxCell>
        <mxCell id="D3T9nn6vkKpE7vzR0iQW-118" value="&lt;p style=&quot;margin:0px;margin-top:4px;text-align:center;&quot;&gt;&lt;i&gt;IUserRepository&lt;/i&gt;&lt;/p&gt;&lt;p style=&quot;margin:0px;margin-left:4px;&quot;&gt;&lt;br&gt;&lt;/p&gt;&lt;p style=&quot;margin:0px;margin-left:4px;&quot;&gt;&lt;br&gt;&lt;/p&gt;+ GetByUsername(string username) : User&lt;p style=&quot;margin:0px;margin-left:4px;&quot;&gt;&lt;/p&gt;" style="verticalAlign=top;align=left;overflow=fill;fontSize=12;fontFamily=Helvetica;html=1;whiteSpace=wrap;" parent="1" vertex="1">
          <mxGeometry x="2710" y="515" width="390" height="70" as="geometry" />
        </mxCell>
        <mxCell id="D3T9nn6vkKpE7vzR0iQW-121" value="" style="endArrow=open;endFill=1;endSize=12;html=1;rounded=0;entryX=0;entryY=0.5;entryDx=0;entryDy=0;" parent="1" target="D3T9nn6vkKpE7vzR0iQW-2" edge="1">
          <mxGeometry width="160" relative="1" as="geometry">
            <mxPoint x="3224" y="640" as="sourcePoint" />
            <mxPoint x="3310" y="650" as="targetPoint" />
            <Array as="points">
              <mxPoint x="3224" y="560" />
            </Array>
          </mxGeometry>
        </mxCell>
        <mxCell id="VCtJCVB4vepcHLoG-WH_-5" value="1..1" style="edgeLabel;html=1;align=center;verticalAlign=middle;resizable=0;points=[];" parent="D3T9nn6vkKpE7vzR0iQW-121" vertex="1" connectable="0">
          <mxGeometry x="-0.6997" y="1" relative="1" as="geometry">
            <mxPoint x="-13" y="-13" as="offset" />
          </mxGeometry>
        </mxCell>
        <mxCell id="VCtJCVB4vepcHLoG-WH_-6" value="1..1" style="edgeLabel;html=1;align=center;verticalAlign=middle;resizable=0;points=[];" parent="D3T9nn6vkKpE7vzR0iQW-121" vertex="1" connectable="0">
          <mxGeometry x="0.6784" y="1" relative="1" as="geometry">
            <mxPoint x="-3" y="-11" as="offset" />
          </mxGeometry>
        </mxCell>
        <mxCell id="D3T9nn6vkKpE7vzR0iQW-122" value="" style="endArrow=open;endFill=1;endSize=12;html=1;rounded=0;entryX=1;entryY=0.5;entryDx=0;entryDy=0;exitX=0.731;exitY=0.003;exitDx=0;exitDy=0;exitPerimeter=0;" parent="1" source="D3T9nn6vkKpE7vzR0iQW-46" target="D3T9nn6vkKpE7vzR0iQW-118" edge="1">
          <mxGeometry width="160" relative="1" as="geometry">
            <mxPoint x="3180" y="630" as="sourcePoint" />
            <mxPoint x="3310" y="650" as="targetPoint" />
            <Array as="points">
              <mxPoint x="3180" y="550" />
            </Array>
          </mxGeometry>
        </mxCell>
        <mxCell id="VCtJCVB4vepcHLoG-WH_-3" value="1..1" style="edgeLabel;html=1;align=center;verticalAlign=middle;resizable=0;points=[];" parent="D3T9nn6vkKpE7vzR0iQW-122" vertex="1" connectable="0">
          <mxGeometry x="-0.7762" y="1" relative="1" as="geometry">
            <mxPoint x="-19" y="-9" as="offset" />
          </mxGeometry>
        </mxCell>
        <mxCell id="VCtJCVB4vepcHLoG-WH_-4" value="1..1" style="edgeLabel;html=1;align=center;verticalAlign=middle;resizable=0;points=[];" parent="D3T9nn6vkKpE7vzR0iQW-122" vertex="1" connectable="0">
          <mxGeometry x="0.5964" y="-4" relative="1" as="geometry">
            <mxPoint x="-2" y="-6" as="offset" />
          </mxGeometry>
        </mxCell>
        <mxCell id="D3T9nn6vkKpE7vzR0iQW-123" value="VoucherService" style="swimlane;fontStyle=1;align=center;verticalAlign=top;childLayout=stackLayout;horizontal=1;startSize=26;horizontalStack=0;resizeParent=1;resizeParentMax=0;resizeLast=0;collapsible=1;marginBottom=0;whiteSpace=wrap;html=1;" parent="1" vertex="1">
          <mxGeometry x="2430" y="667.5" width="330" height="268" as="geometry" />
        </mxCell>
        <mxCell id="D3T9nn6vkKpE7vzR0iQW-124" value="" style="line;strokeWidth=1;fillColor=none;align=left;verticalAlign=middle;spacingTop=-1;spacingLeft=3;spacingRight=3;rotatable=0;labelPosition=right;points=[];portConstraint=eastwest;strokeColor=inherit;" parent="D3T9nn6vkKpE7vzR0iQW-123" vertex="1">
          <mxGeometry y="26" width="330" height="8" as="geometry" />
        </mxCell>
        <mxCell id="D3T9nn6vkKpE7vzR0iQW-126" value="+ NextId() : int" style="text;strokeColor=none;fillColor=none;align=left;verticalAlign=top;spacingLeft=4;spacingRight=4;overflow=hidden;rotatable=0;points=[[0,0.5],[1,0.5]];portConstraint=eastwest;whiteSpace=wrap;html=1;" parent="D3T9nn6vkKpE7vzR0iQW-123" vertex="1">
          <mxGeometry y="34" width="330" height="26" as="geometry" />
        </mxCell>
        <mxCell id="D3T9nn6vkKpE7vzR0iQW-128" value="+&amp;nbsp;GetAllVouchers() : List&amp;lt;Voucher&amp;gt;" style="text;strokeColor=none;fillColor=none;align=left;verticalAlign=top;spacingLeft=4;spacingRight=4;overflow=hidden;rotatable=0;points=[[0,0.5],[1,0.5]];portConstraint=eastwest;whiteSpace=wrap;html=1;" parent="D3T9nn6vkKpE7vzR0iQW-123" vertex="1">
          <mxGeometry y="60" width="330" height="26" as="geometry" />
        </mxCell>
        <mxCell id="D3T9nn6vkKpE7vzR0iQW-136" value="+&amp;nbsp;GetVoucherById(int id) : Voucher" style="text;strokeColor=none;fillColor=none;align=left;verticalAlign=top;spacingLeft=4;spacingRight=4;overflow=hidden;rotatable=0;points=[[0,0.5],[1,0.5]];portConstraint=eastwest;whiteSpace=wrap;html=1;" parent="D3T9nn6vkKpE7vzR0iQW-123" vertex="1">
          <mxGeometry y="86" width="330" height="26" as="geometry" />
        </mxCell>
        <mxCell id="D3T9nn6vkKpE7vzR0iQW-129" value="+ GetVouchersWithIds(List&amp;lt;int&amp;gt; ids) : List&amp;lt;Voucher&amp;gt;" style="text;strokeColor=none;fillColor=none;align=left;verticalAlign=top;spacingLeft=4;spacingRight=4;overflow=hidden;rotatable=0;points=[[0,0.5],[1,0.5]];portConstraint=eastwest;whiteSpace=wrap;html=1;" parent="D3T9nn6vkKpE7vzR0iQW-123" vertex="1">
          <mxGeometry y="112" width="330" height="26" as="geometry" />
        </mxCell>
        <mxCell id="D3T9nn6vkKpE7vzR0iQW-138" value="+ GetActiveVouchersWithIds(List&amp;lt;int&amp;gt; ids) : List&amp;lt;Voucher&amp;gt;" style="text;strokeColor=none;fillColor=none;align=left;verticalAlign=top;spacingLeft=4;spacingRight=4;overflow=hidden;rotatable=0;points=[[0,0.5],[1,0.5]];portConstraint=eastwest;whiteSpace=wrap;html=1;" parent="D3T9nn6vkKpE7vzR0iQW-123" vertex="1">
          <mxGeometry y="138" width="330" height="26" as="geometry" />
        </mxCell>
        <mxCell id="D3T9nn6vkKpE7vzR0iQW-137" value="+ Create(Voucher voucher): void" style="text;strokeColor=none;fillColor=none;align=left;verticalAlign=top;spacingLeft=4;spacingRight=4;overflow=hidden;rotatable=0;points=[[0,0.5],[1,0.5]];portConstraint=eastwest;whiteSpace=wrap;html=1;" parent="D3T9nn6vkKpE7vzR0iQW-123" vertex="1">
          <mxGeometry y="164" width="330" height="26" as="geometry" />
        </mxCell>
        <mxCell id="D3T9nn6vkKpE7vzR0iQW-130" value="+ Delete(Voucher voucher): void" style="text;strokeColor=none;fillColor=none;align=left;verticalAlign=top;spacingLeft=4;spacingRight=4;overflow=hidden;rotatable=0;points=[[0,0.5],[1,0.5]];portConstraint=eastwest;whiteSpace=wrap;html=1;" parent="D3T9nn6vkKpE7vzR0iQW-123" vertex="1">
          <mxGeometry y="190" width="330" height="26" as="geometry" />
        </mxCell>
        <mxCell id="D3T9nn6vkKpE7vzR0iQW-131" value="+ Update(Voucher voucher): void" style="text;strokeColor=none;fillColor=none;align=left;verticalAlign=top;spacingLeft=4;spacingRight=4;overflow=hidden;rotatable=0;points=[[0,0.5],[1,0.5]];portConstraint=eastwest;whiteSpace=wrap;html=1;" parent="D3T9nn6vkKpE7vzR0iQW-123" vertex="1">
          <mxGeometry y="216" width="330" height="26" as="geometry" />
        </mxCell>
        <mxCell id="D3T9nn6vkKpE7vzR0iQW-132" value="+ Subscribe(IObserver observer): void" style="text;strokeColor=none;fillColor=none;align=left;verticalAlign=top;spacingLeft=4;spacingRight=4;overflow=hidden;rotatable=0;points=[[0,0.5],[1,0.5]];portConstraint=eastwest;whiteSpace=wrap;html=1;" parent="D3T9nn6vkKpE7vzR0iQW-123" vertex="1">
          <mxGeometry y="242" width="330" height="26" as="geometry" />
        </mxCell>
        <mxCell id="D3T9nn6vkKpE7vzR0iQW-141" value="&lt;p style=&quot;margin: 4px 0px 0px;&quot;&gt;&lt;/p&gt;&lt;div style=&quot;text-align: center;&quot;&gt;&lt;i style=&quot;border-color: var(--border-color);&quot;&gt;IVoucherRepository&lt;/i&gt;&lt;br&gt;&lt;/div&gt;&lt;hr size=&quot;1&quot;&gt;&lt;p style=&quot;border-color: var(--border-color); margin: 4px 0px 0px;&quot;&gt;&lt;span style=&quot;background-color: initial;&quot;&gt;+ GetWithIds(List&amp;lt;int&amp;gt; ids):List&amp;lt;Voucher&amp;gt;&lt;/span&gt;&lt;br&gt;&lt;/p&gt;&lt;p style=&quot;border-color: var(--border-color); margin: 4px 0px 0px;&quot;&gt;+&lt;span style=&quot;&quot;&gt;GetActiveVouchers&lt;/span&gt;(List&amp;lt;int&amp;gt; ids&lt;span style=&quot;background-color: initial;&quot;&gt;):List&amp;lt;Voucher&amp;gt;&lt;/span&gt;&lt;/p&gt;&lt;p style=&quot;border-color: var(--border-color); margin: 4px 0px 0px;&quot;&gt;&lt;br&gt;&lt;/p&gt;&lt;p style=&quot;border-color: var(--border-color); margin: 4px 0px 0px;&quot;&gt;&lt;br&gt;&lt;/p&gt;&lt;p style=&quot;border-color: var(--border-color); margin: 4px 0px 0px;&quot;&gt;&lt;br&gt;&lt;/p&gt;&lt;p style=&quot;margin:0px;margin-left:4px;&quot;&gt;&lt;span style=&quot;&quot;&gt;&lt;span style=&quot;&quot;&gt;&amp;nbsp;&amp;nbsp;&amp;nbsp;&amp;nbsp;&lt;/span&gt;&lt;/span&gt;&lt;span style=&quot;&quot;&gt;&lt;span style=&quot;&quot;&gt;&amp;nbsp;&amp;nbsp;&amp;nbsp;&amp;nbsp;&lt;/span&gt;&lt;/span&gt;&lt;span style=&quot;&quot;&gt;&lt;span style=&quot;&quot;&gt;&amp;nbsp;&amp;nbsp;&amp;nbsp;&amp;nbsp;&lt;/span&gt;&lt;/span&gt;&amp;nbsp;&lt;br&gt;&lt;/p&gt;" style="verticalAlign=top;align=left;overflow=fill;fontSize=12;fontFamily=Helvetica;html=1;whiteSpace=wrap;" parent="1" vertex="1">
          <mxGeometry x="2270" y="512.5" width="390" height="75" as="geometry" />
        </mxCell>
        <mxCell id="D3T9nn6vkKpE7vzR0iQW-161" value="" style="endArrow=open;endFill=1;endSize=12;html=1;rounded=0;entryX=0.826;entryY=1.001;entryDx=0;entryDy=0;entryPerimeter=0;exitX=0.49;exitY=-0.009;exitDx=0;exitDy=0;exitPerimeter=0;" parent="1" target="D3T9nn6vkKpE7vzR0iQW-141" edge="1" source="D3T9nn6vkKpE7vzR0iQW-123">
          <mxGeometry width="160" relative="1" as="geometry">
            <mxPoint x="2620" y="590" as="sourcePoint" />
            <mxPoint x="2840" y="650" as="targetPoint" />
          </mxGeometry>
        </mxCell>
        <mxCell id="VCtJCVB4vepcHLoG-WH_-1" value="1..1" style="edgeLabel;html=1;align=center;verticalAlign=middle;resizable=0;points=[];" parent="D3T9nn6vkKpE7vzR0iQW-161" vertex="1" connectable="0">
          <mxGeometry x="-0.6017" y="2" relative="1" as="geometry">
            <mxPoint x="20" as="offset" />
          </mxGeometry>
        </mxCell>
        <mxCell id="VCtJCVB4vepcHLoG-WH_-2" value="1..1" style="edgeLabel;html=1;align=center;verticalAlign=middle;resizable=0;points=[];" parent="D3T9nn6vkKpE7vzR0iQW-161" vertex="1" connectable="0">
          <mxGeometry x="0.3482" y="-2" relative="1" as="geometry">
            <mxPoint x="12" as="offset" />
          </mxGeometry>
        </mxCell>
        <mxCell id="D3T9nn6vkKpE7vzR0iQW-164" value="Extends" style="endArrow=block;endSize=16;endFill=0;html=1;rounded=0;entryX=0.413;entryY=1.006;entryDx=0;entryDy=0;entryPerimeter=0;exitX=0.913;exitY=-0.021;exitDx=0;exitDy=0;exitPerimeter=0;" parent="1" source="D3T9nn6vkKpE7vzR0iQW-2" target="D3T9nn6vkKpE7vzR0iQW-4" edge="1">
          <mxGeometry width="160" relative="1" as="geometry">
            <mxPoint x="3270" y="670" as="sourcePoint" />
            <mxPoint x="3430" y="670" as="targetPoint" />
          </mxGeometry>
        </mxCell>
        <mxCell id="D3T9nn6vkKpE7vzR0iQW-165" value="Extends" style="endArrow=block;endSize=16;endFill=0;html=1;rounded=0;entryX=0.823;entryY=1.011;entryDx=0;entryDy=0;entryPerimeter=0;exitX=0.463;exitY=0.017;exitDx=0;exitDy=0;exitPerimeter=0;" parent="1" source="D3T9nn6vkKpE7vzR0iQW-2" target="D3T9nn6vkKpE7vzR0iQW-1" edge="1">
          <mxGeometry width="160" relative="1" as="geometry">
            <mxPoint x="3491" y="520" as="sourcePoint" />
            <mxPoint x="3430" y="670" as="targetPoint" />
          </mxGeometry>
        </mxCell>
        <mxCell id="D3T9nn6vkKpE7vzR0iQW-166" value="" style="endArrow=block;dashed=1;endFill=0;endSize=12;html=1;rounded=0;entryX=0.576;entryY=0.983;entryDx=0;entryDy=0;entryPerimeter=0;exitX=0.32;exitY=-0.006;exitDx=0;exitDy=0;exitPerimeter=0;" parent="1" source="D3T9nn6vkKpE7vzR0iQW-7" target="D3T9nn6vkKpE7vzR0iQW-2" edge="1">
          <mxGeometry width="160" relative="1" as="geometry">
            <mxPoint x="3310" y="630" as="sourcePoint" />
            <mxPoint x="3470" y="630" as="targetPoint" />
          </mxGeometry>
        </mxCell>
        <mxCell id="D3T9nn6vkKpE7vzR0iQW-167" value="Extends" style="endArrow=block;endSize=16;endFill=0;html=1;rounded=0;entryX=-0.01;entryY=0.568;entryDx=0;entryDy=0;entryPerimeter=0;exitX=0.536;exitY=0.021;exitDx=0;exitDy=0;exitPerimeter=0;" parent="1" source="D3T9nn6vkKpE7vzR0iQW-118" target="D3T9nn6vkKpE7vzR0iQW-1" edge="1">
          <mxGeometry width="160" relative="1" as="geometry">
            <mxPoint x="3010" y="540" as="sourcePoint" />
            <mxPoint x="3170" y="540" as="targetPoint" />
            <Array as="points">
              <mxPoint x="2920" y="370" />
            </Array>
          </mxGeometry>
        </mxCell>
        <mxCell id="D3T9nn6vkKpE7vzR0iQW-168" value="Extends" style="endArrow=block;endSize=16;endFill=0;html=1;rounded=0;entryX=-0.006;entryY=0.129;entryDx=0;entryDy=0;entryPerimeter=0;" parent="1" target="D3T9nn6vkKpE7vzR0iQW-1" edge="1">
          <mxGeometry width="160" relative="1" as="geometry">
            <mxPoint x="2600" y="510" as="sourcePoint" />
            <mxPoint x="3130" y="500" as="targetPoint" />
            <Array as="points">
              <mxPoint x="2600" y="308" />
            </Array>
          </mxGeometry>
        </mxCell>
        <mxCell id="D3T9nn6vkKpE7vzR0iQW-169" value="Extends" style="endArrow=block;endSize=16;endFill=0;html=1;rounded=0;entryX=0.25;entryY=0;entryDx=0;entryDy=0;exitX=0.618;exitY=0.04;exitDx=0;exitDy=0;exitPerimeter=0;" parent="1" source="D3T9nn6vkKpE7vzR0iQW-141" target="D3T9nn6vkKpE7vzR0iQW-4" edge="1">
          <mxGeometry width="160" relative="1" as="geometry">
            <mxPoint x="2520" y="450" as="sourcePoint" />
            <mxPoint x="3250" y="520" as="targetPoint" />
            <Array as="points">
              <mxPoint x="2510" y="260" />
              <mxPoint x="3630" y="260" />
            </Array>
          </mxGeometry>
        </mxCell>
        <mxCell id="D3T9nn6vkKpE7vzR0iQW-162" value="" style="endArrow=open;endFill=1;endSize=12;html=1;rounded=0;exitX=-0.007;exitY=0.26;exitDx=0;exitDy=0;exitPerimeter=0;entryX=0.997;entryY=0.26;entryDx=0;entryDy=0;entryPerimeter=0;" parent="1" source="D3T9nn6vkKpE7vzR0iQW-54" target="D3T9nn6vkKpE7vzR0iQW-129" edge="1">
          <mxGeometry width="160" relative="1" as="geometry">
            <mxPoint x="2680" y="650" as="sourcePoint" />
            <mxPoint x="2840" y="650" as="targetPoint" />
          </mxGeometry>
        </mxCell>
        <mxCell id="VCtJCVB4vepcHLoG-WH_-7" value="1..1" style="edgeLabel;html=1;align=center;verticalAlign=middle;resizable=0;points=[];" parent="D3T9nn6vkKpE7vzR0iQW-162" vertex="1" connectable="0">
          <mxGeometry x="-0.7912" y="2" relative="1" as="geometry">
            <mxPoint x="-2" y="-11" as="offset" />
          </mxGeometry>
        </mxCell>
        <mxCell id="VCtJCVB4vepcHLoG-WH_-8" value="1..1" style="edgeLabel;html=1;align=center;verticalAlign=middle;resizable=0;points=[];" parent="D3T9nn6vkKpE7vzR0iQW-162" vertex="1" connectable="0">
          <mxGeometry x="0.6661" y="2" relative="1" as="geometry">
            <mxPoint y="-10" as="offset" />
          </mxGeometry>
        </mxCell>
      </root>
    </mxGraphModel>
  </diagram>
</mxfile>
